<svg id="Layer_1" enable-background="new 0 0 36 36" height="512" viewBox="0 0 36 36" width="512" xmlns="http://www.w3.org/2000/svg"><g><path d="m18 1c-5.62 0-10.88 2.78-14.05 7.44-1.93 2.82-2.95 6.13-2.95 9.56s1.02 6.74 2.95 9.56c3.17 4.66 8.43 7.44 14.05 7.44s10.88-2.78 14.05-7.44c1.93-2.82 2.95-6.13 2.95-9.56s-1.02-6.74-2.95-9.56c-3.17-4.66-8.42-7.44-14.05-7.44zm11.18 7h-4.45c-.58-1.7-1.31-3.14-2.15-4.27 2.54.82 4.82 2.29 6.6 4.27zm-17.41 9c.07-2.48.42-4.88 1-7h10.45c.58 2.12.93 4.52 1 7zm12.46 2c-.07 2.48-.42 4.88-1 7h-10.46c-.58-2.12-.93-4.52-1-7zm-6.23-16c1.67 0 3.36 1.85 4.57 5h-9.14c1.21-3.15 2.9-5 4.57-5zm-4.58.73c-.84 1.13-1.57 2.57-2.15 4.27h-4.45c1.78-1.98 4.06-3.45 6.6-4.27zm-8.11 6.27h5.37c-.54 2.14-.85 4.54-.91 7h-6.74c.17-2.49.95-4.89 2.28-7zm0 16c-1.33-2.11-2.12-4.51-2.28-7h6.74c.07 2.46.38 4.86.91 7zm1.51 2h4.45c.58 1.7 1.31 3.14 2.15 4.27-2.54-.82-4.82-2.29-6.6-4.27zm11.18 5c-1.67 0-3.36-1.85-4.57-5h9.14c-1.21 3.15-2.9 5-4.57 5zm4.58-.73c.84-1.12 1.57-2.57 2.15-4.27h4.45c-1.78 1.98-4.06 3.45-6.6 4.27zm8.11-6.27h-5.37c.54-2.14.85-4.54.91-7h6.74c-.17 2.49-.95 4.89-2.28 7zm-4.46-9c-.07-2.46-.38-4.86-.91-7h5.37c1.33 2.11 2.12 4.51 2.28 7z"/></g></svg>