<?xml version="1.0" encoding="UTF-8" standalone="no"?>
<!-- Created with Inkscape (http://www.inkscape.org/) -->

<svg
   version="1.1"
   id="svg3159"
   xml:space="preserve"
   width="682.66669"
   height="682.66669"
   viewBox="0 0 682.66669 682.66669"
   xmlns="http://www.w3.org/2000/svg"
   xmlns:svg="http://www.w3.org/2000/svg"><defs
     id="defs3163"><clipPath
       clipPathUnits="userSpaceOnUse"
       id="clipPath3173"><path
         d="M 0,512 H 512 V 0 H 0 Z"
         id="path3171" /></clipPath></defs><g
     id="g3165"
     transform="matrix(1.3333333,0,0,-1.3333333,0,682.66667)"><g
       id="g3167"><g
         id="g3169"
         clip-path="url(#clipPath3173)"><g
           id="g3175"
           transform="translate(397.0017,199.084)"><path
             d="m 0,0 65.42,61.866 c 45.934,45.934 45.934,120.407 0,166.341 -45.934,45.934 -120.407,45.934 -166.341,0 l -92.646,-90.012 c -15.596,-15.091 -15.801,-40.033 -0.455,-55.378 v -10e-4 c 15.168,-15.168 39.762,-15.168 54.93,0 l 16.585,16.585 c 6.38,6.38 16.726,6.38 23.106,0 L 3.564,-3.564 c 12.468,-12.468 12.468,-32.682 0,-45.15 -12.467,-12.468 -32.681,-12.468 -45.149,0"
             style="fill:none;stroke:#000000;stroke-width:30;stroke-linecap:round;stroke-linejoin:round;stroke-miterlimit:10;stroke-dasharray:none;stroke-opacity:1"
             id="path3177" /></g><g
           id="g3179"
           transform="translate(277.325,131.5)"><path
             d="m 0,0 27.945,-27.945 c 13.388,-13.388 35.093,-13.388 48.481,0 13.387,13.387 13.387,35.093 0,48.481 L 48.333,48.629"
             style="fill:none;stroke:#000000;stroke-width:30;stroke-linecap:round;stroke-linejoin:round;stroke-miterlimit:10;stroke-dasharray:none;stroke-opacity:1"
             id="path3181" /></g><g
           id="g3183"
           transform="translate(262.2254,394.8506)"><path
             d="m 0,0 -35.886,35.885 c -48.317,48.317 -126.655,48.317 -174.973,0 -48.317,-48.318 -48.317,-126.656 0,-174.973 l 13.193,-13.193"
             style="fill:none;stroke:#000000;stroke-width:30;stroke-linecap:round;stroke-linejoin:round;stroke-miterlimit:10;stroke-dasharray:none;stroke-opacity:1"
             id="path3185" /></g><g
           id="g3187"
           transform="translate(149.2337,78.7012)"><path
             d="m 0,0 0.443,-0.442 c 13.627,-13.628 35.722,-13.628 49.349,0 l 17.856,17.855 c 13.628,13.628 13.628,35.723 0,49.35 l -0.442,0.442 c -13.628,13.628 -35.722,13.628 -49.35,0 L 0,49.35 C -13.627,35.722 -13.627,13.627 0,0 Z"
             style="fill:none;stroke:#000000;stroke-width:30;stroke-linecap:round;stroke-linejoin:round;stroke-miterlimit:10;stroke-dasharray:none;stroke-opacity:1"
             id="path3189" /></g><g
           id="g3191"
           transform="translate(98.6785,127.7315)"><path
             d="m 0,0 0.442,-0.442 c 13.628,-13.628 35.722,-13.628 49.349,0 L 94.815,44.58 c 13.627,13.628 13.627,35.723 0,49.35 l -0.443,0.442 C 80.745,108 58.65,108 45.023,94.372 L 0,49.35 C -13.627,35.722 -13.627,13.627 0,0 Z"
             style="fill:none;stroke:#000000;stroke-width:30;stroke-linecap:round;stroke-linejoin:round;stroke-miterlimit:10;stroke-dasharray:none;stroke-opacity:1"
             id="path3193" /></g><g
           id="g3195"
           transform="translate(48.8865,177.5235)"><path
             d="m 0,0 0.442,-0.442 c 13.628,-13.628 35.723,-13.628 49.35,0 l 27.544,27.544 c 13.628,13.627 13.628,35.721 0,49.349 l -0.442,0.443 c -13.628,13.627 -35.722,13.627 -49.35,0 L 0,49.349 C -13.627,35.722 -13.627,13.627 0,0 Z"
             style="fill:none;stroke:#000000;stroke-width:30;stroke-linecap:round;stroke-linejoin:round;stroke-miterlimit:10;stroke-dasharray:none;stroke-opacity:1"
             id="path3197" /></g><g
           id="g3199"
           transform="translate(216.3596,95.4893)"><path
             d="m 0,0 40.422,-40.423 c 13.388,-13.387 35.093,-13.387 48.481,0 13.388,13.388 13.388,35.094 0,48.482"
             style="fill:none;stroke:#000000;stroke-width:30;stroke-linecap:round;stroke-linejoin:round;stroke-miterlimit:10;stroke-dasharray:none;stroke-opacity:1"
             id="path3201" /></g></g></g></g></svg>
