<svg width="57" height="57" viewBox="0 0 57 57" fill="none" xmlns="http://www.w3.org/2000/svg">
<path d="M28.3332 0C37.6998 0 46.4665 4.63333 51.7498 12.4C54.9665 17.1 56.6665 22.6167 56.6665 28.3333C56.6665 34.05 54.9665 39.5667 51.7498 44.2667C46.4665 52.0333 37.6998 56.6667 28.3332 56.6667C18.9665 56.6667 10.1998 52.0333 4.9165 44.2667C1.69983 39.5667 -0.000167847 34.05 -0.000167847 28.3333C-0.000167847 22.6167 1.69983 17.1 4.9165 12.4C10.1998 4.63333 18.9498 0 28.3332 0ZM9.69983 11.6667H17.1165C18.0832 8.83333 19.2998 6.43333 20.6998 4.55C16.4665 5.91667 12.6665 8.36667 9.69983 11.6667ZM38.7165 26.6667C38.5998 22.5333 38.0165 18.5333 37.0498 15H19.6332C18.6665 18.5333 18.0832 22.5333 17.9665 26.6667H38.7165ZM17.9498 30C18.0665 34.1333 18.6498 38.1333 19.6165 41.6667H37.0498C38.0165 38.1333 38.5998 34.1333 38.7165 30H17.9498ZM28.3332 3.33333C25.5498 3.33333 22.7332 6.41667 20.7165 11.6667H35.9498C33.9332 6.41667 31.1165 3.33333 28.3332 3.33333ZM35.9665 4.55C37.3665 6.43333 38.5832 8.83333 39.5498 11.6667H46.9665C43.9998 8.36667 40.1998 5.91667 35.9665 4.55ZM49.4832 15H40.5332C41.4332 18.5667 41.9498 22.5667 42.0498 26.6667H53.2832C52.9998 22.5167 51.6998 18.5167 49.4832 15ZM49.4832 41.6667C51.6998 38.15 53.0165 34.15 53.2832 30H42.0498C41.9332 34.1 41.4165 38.1 40.5332 41.6667H49.4832ZM46.9665 45H39.5498C38.5832 47.8333 37.3665 50.2333 35.9665 52.1167C40.1998 50.75 43.9998 48.3 46.9665 45ZM28.3332 53.3333C31.1165 53.3333 33.9332 50.25 35.9498 45H20.7165C22.7332 50.25 25.5498 53.3333 28.3332 53.3333ZM20.6998 52.1167C19.2998 50.25 18.0832 47.8333 17.1165 45H9.69983C12.6665 48.3 16.4665 50.75 20.6998 52.1167ZM7.18316 41.6667H16.1332C15.2332 38.1 14.7165 34.1 14.6165 30H3.38316C3.6665 34.15 4.9665 38.15 7.18316 41.6667ZM14.6165 26.6667C14.7332 22.5667 15.2498 18.5667 16.1332 15H7.18316C4.9665 18.5167 3.64983 22.5167 3.38316 26.6667H14.6165Z" fill="none"/>
</svg>
