<svg width="60" height="60" viewBox="0 0 60 60" fill="none" xmlns="http://www.w3.org/2000/svg">
<mask id="mask0_163_398" style="mask-type:luminance" maskUnits="userSpaceOnUse" x="0" y="0" width="60" height="60">
<path d="M0 0H60V60H0V0Z" fill="none"/>
</mask>
<g mask="url(#mask0_163_398)">
<path d="M46.5238 36.6698L54.1902 29.4199C59.5731 24.037 59.5731 15.3097 54.1902 9.9268C48.8073 4.54391 40.08 4.54391 34.6971 9.9268L23.8402 20.4751C22.0125 22.2436 21.9885 25.1665 23.7869 26.9647V26.9648C25.5644 28.7423 28.4465 28.7423 30.224 26.9648L32.1675 25.0213C32.9152 24.2736 34.1276 24.2736 34.8753 25.0213L46.9415 37.0875C48.4026 38.5486 48.4026 40.9174 46.9415 42.3785C45.4805 43.8396 43.1117 43.8396 41.6506 42.3785" stroke="white" stroke-width="3" stroke-miterlimit="10" stroke-linecap="round" stroke-linejoin="round"/>
<path d="M32.499 44.5898L35.7738 47.8646C37.3427 49.4335 39.8863 49.4335 41.4552 47.8646C43.024 46.2959 43.024 43.7522 41.4552 42.1833L38.163 38.8911" stroke="white" stroke-width="3" stroke-miterlimit="10" stroke-linecap="round" stroke-linejoin="round"/>
<path d="M30.7296 13.7285L26.5242 9.52321C20.8621 3.86106 11.6818 3.86106 6.01956 9.52321C0.357412 15.1855 0.357412 24.3657 6.01956 30.0279L7.56561 31.5739" stroke="white" stroke-width="3" stroke-miterlimit="10" stroke-linecap="round" stroke-linejoin="round"/>
<path d="M17.4882 50.7772L17.5401 50.829C19.137 52.4261 21.7263 52.4261 23.3232 50.829L25.4157 48.7366C27.0127 47.1396 27.0127 44.5503 25.4157 42.9534L25.3639 42.9016C23.7669 41.3046 21.1777 41.3046 19.5807 42.9016L17.4882 44.994C15.8913 46.5911 15.8913 49.1803 17.4882 50.7772Z" stroke="white" stroke-width="3" stroke-miterlimit="10" stroke-linecap="round" stroke-linejoin="round"/>
<path d="M11.5639 45.0315L11.6157 45.0833C13.2127 46.6803 15.8019 46.6803 17.3988 45.0833L22.675 39.8073C24.2719 38.2102 24.2719 35.621 22.675 34.0241L22.6231 33.9723C21.0262 32.3752 18.4369 32.3752 16.84 33.9723L11.5639 39.2483C9.96698 40.8453 9.96698 43.4346 11.5639 45.0315Z" stroke="white" stroke-width="3" stroke-miterlimit="10" stroke-linecap="round" stroke-linejoin="round"/>
<path d="M5.72894 39.1965L5.78073 39.2483C7.37776 40.8453 9.96702 40.8453 11.5639 39.2483L14.7917 36.0205C16.3888 34.4235 16.3888 31.8344 14.7917 30.2374L14.74 30.1855C13.1429 28.5885 10.5538 28.5885 8.95675 30.1855L5.72894 33.4134C4.13202 35.0103 4.13202 37.5996 5.72894 39.1965Z" stroke="white" stroke-width="3" stroke-miterlimit="10" stroke-linecap="round" stroke-linejoin="round"/>
<path d="M25.355 48.8098L30.0919 53.5469C31.6608 55.1157 34.2044 55.1157 35.7733 53.5469C37.3422 51.978 37.3422 49.4343 35.7733 47.8654" stroke="white" stroke-width="3" stroke-miterlimit="10" stroke-linecap="round" stroke-linejoin="round"/>
</g>
</svg>
